<svg width="15" height="15" viewBox="0 0 15 15" fill="none" xmlns="http://www.w3.org/2000/svg">
<path d="M14.7863 7.49623C14.7863 11.6249 11.4683 14.9925 7.39195 14.9925C3.32302 14.9925 0 11.6249 0 7.49623C0 3.36242 3.32302 0 7.39195 0C11.4683 0 14.7863 3.36242 14.7863 7.49623ZM6.14493 6.06024C5.89936 6.06024 5.71326 6.25592 5.71326 6.49C5.71326 6.73724 5.89936 6.92264 6.14493 6.92264H7.12243V10.8525H6.04935C5.79869 10.8525 5.61258 11.0482 5.61258 11.2823C5.61258 11.5296 5.79869 11.715 6.04935 11.715H9.12375C9.37673 11.715 9.56281 11.5296 9.56281 11.2823C9.56281 11.0482 9.37673 10.8525 9.12375 10.8525H8.05296V6.59366C8.05296 6.2817 7.8923 6.06024 7.59078 6.06024H6.14493ZM6.5157 3.83569C6.5157 4.30642 6.88714 4.67841 7.34848 4.67841C7.80988 4.67841 8.17619 4.30642 8.17619 3.83569C8.17619 3.36265 7.80988 2.98602 7.34848 2.98602C6.88714 2.98602 6.5157 3.36265 6.5157 3.83569Z" fill="#828079"/>
</svg>
