<svg width="23" height="20" viewBox="0 0 23 20" fill="none" xmlns="http://www.w3.org/2000/svg">
<g clip-path="url(#clip0_86_323)">
<path d="M8.54675 19.2388H14.1679V12.9329C14.1679 12.5297 13.9002 12.2663 13.4903 12.2663H9.23113C8.82119 12.2663 8.54675 12.5297 8.54675 12.9329V19.2388ZM0.644847 9.79894C0.856287 9.79894 1.01854 9.6958 1.17635 9.57029L10.9733 1.47617C11.0937 1.37707 11.2308 1.32268 11.3573 1.32268C11.4906 1.32268 11.6209 1.37707 11.7414 1.47617L21.5451 9.57029C21.6961 9.6958 21.8584 9.79894 22.0728 9.79894C22.473 9.79894 22.7146 9.51757 22.7146 9.21075C22.7146 9.03316 22.6444 8.85787 22.4608 8.71366L12.416 0.419537C12.0787 0.139846 11.718 0 11.3573 0C10.9966 0 10.6359 0.139846 10.3017 0.419537L0.253846 8.71366C0.0770393 8.85787 0 9.03316 0 9.21075C0 9.51757 0.241645 9.79894 0.644847 9.79894ZM17.9242 5.36504L20.0246 7.11075V2.90202C20.0246 2.54819 19.7918 2.32521 19.4383 2.32521H18.5105C18.1637 2.32521 17.9242 2.54819 17.9242 2.90202V5.36504ZM4.73363 19.9836H17.9878C19.2903 19.9836 20.0246 19.2687 20.0246 18.0038V7.31669L18.8096 6.48081V17.7157C18.8096 18.4347 18.4469 18.7885 17.7326 18.7885H4.98885C4.26766 18.7885 3.90804 18.4347 3.90804 17.7157V6.49648L2.68997 7.31669V18.0038C2.68997 19.2784 3.42731 19.9836 4.73363 19.9836Z" fill="#828079"/>
</g>
<defs>
<clipPath id="clip0_86_323">
<rect width="23" height="20" fill="white"/>
</clipPath>
</defs>
</svg>