<svg width="18" height="15" viewBox="0 0 18 15" fill="none" xmlns="http://www.w3.org/2000/svg">
<path d="M12.5271 2.08022V5.89054H11.661V2.09915C11.661 1.30609 11.2458 0.874989 10.4338 0.874989H3.02853C2.21868 0.874989 1.79864 1.30609 1.79864 2.09915V12.9096C1.79864 13.7027 2.21868 14.129 3.02853 14.129H10.4338C11.2458 14.129 11.661 13.7027 11.661 12.9096V9.10256H12.5271V12.9286C12.5271 14.3032 11.8373 15 10.4769 15H2.98063C1.62498 15 0.930359 14.3032 0.930359 12.9286V2.08022C0.930359 0.710478 1.62498 0.00390625 2.98063 0.00390625H10.4769C11.8373 0.00390625 12.5271 0.710478 12.5271 2.08022Z" fill="#CD6060"/>
<path d="M6.83105 7.49653C6.83105 7.72928 7.02002 7.92371 7.24933 7.92371H14.6392L15.6537 7.89241L15.1921 8.34315L13.9023 9.58859C13.8161 9.66531 13.7709 9.78036 13.7709 9.88348C13.7709 10.1022 13.9356 10.2794 14.1558 10.2794C14.2683 10.2794 14.3544 10.2313 14.4379 10.1476L16.7226 7.80865C16.8259 7.70283 16.8641 7.60455 16.8641 7.49653C16.8641 7.38367 16.8259 7.28805 16.7226 7.18441L14.4379 4.8363C14.3544 4.75475 14.2683 4.71155 14.1558 4.71155C13.9356 4.71155 13.7709 4.87465 13.7709 5.10037C13.7709 5.20352 13.8161 5.3256 13.9023 5.40229L15.1921 6.64293L15.6629 7.09852L14.6392 7.06233H7.24933C7.02002 7.06233 6.83105 7.26378 6.83105 7.49653Z" fill="#CD6060"/>
</svg>
