<svg width="20" height="20" viewBox="0 0 20 20" fill="none" xmlns="http://www.w3.org/2000/svg">
<path d="M8.95863 19.9994H10.7654C11.2779 19.9994 11.6299 19.7002 11.7501 19.1754L12.2301 17.1096C12.5569 16.9932 12.8831 16.8664 13.1734 16.733L14.9597 17.8505C15.3954 18.1319 15.8587 18.0904 16.216 17.7281L17.4847 16.4483C17.8479 16.08 17.8954 15.5933 17.6077 15.1485L16.5027 13.3537C16.6408 13.0429 16.7658 12.7315 16.8676 12.4141L18.9179 11.9207C19.4357 11.7989 19.7241 11.442 19.7241 10.9223V9.10731C19.7241 8.59429 19.4357 8.23737 18.9179 8.11558L16.8807 7.62222C16.7658 7.27451 16.6343 6.95343 16.5158 6.66931L17.6179 4.85447C17.8954 4.40304 17.8676 3.9496 17.4978 3.57768L16.216 2.29125C15.8521 1.9393 15.4121 1.87109 14.9794 2.15251L13.1734 3.29297C12.8896 3.1499 12.5701 3.02612 12.2301 2.90967L11.7501 0.824014C11.6299 0.29609 11.2779 0 10.7654 0H8.95863C8.44613 0 8.09413 0.29609 7.96746 0.824014L7.48742 2.89635C7.15468 3.0128 6.83441 3.13659 6.53449 3.28632L4.74168 2.15251C4.30599 1.87109 3.85289 1.92598 3.49561 2.29125L2.22032 3.57768C1.85351 3.9496 1.81612 4.40304 2.10024 4.85447L3.19874 6.66931C3.08389 6.95343 2.95525 7.27451 2.8404 7.62222L0.806108 8.11558C0.288398 8.23737 0 8.59429 0 9.10731V10.9223C0 11.442 0.288398 11.7989 0.806108 11.9207L2.85354 12.4141C2.95525 12.7315 3.07733 13.0429 3.21187 13.3537L2.11337 15.1485C1.81612 15.5933 1.87321 16.08 2.23345 16.4483L3.49561 17.7281C3.85289 18.0904 4.32569 18.1319 4.76138 17.8505L6.54106 16.733C6.84097 16.8664 7.15468 16.9932 7.48742 17.1096L7.96746 19.1754C8.09413 19.7002 8.44613 19.9994 8.95863 19.9994ZM9.86055 13.4397C7.98446 13.4397 6.46342 11.8975 6.46342 9.99518C6.46342 8.0929 7.98446 6.55064 9.86055 6.55064C11.7395 6.55064 13.2607 8.0929 13.2607 9.99518C13.2607 11.8975 11.7395 13.4397 9.86055 13.4397Z" fill="#828079"/>
</svg>
